<svg xmlns="http://www.w3.org/2000/svg" viewBox="0 0 250.8 198.93"><defs><style>.cls-1{fill:#fff;}</style></defs><g id="Laag_2" data-name="Laag 2"><g id="Laag_1-2" data-name="Laag 1"><g id="Yhbh81"><path class="cls-1" d="M250.72,65V181.87c-.45.19-1.17.25-1.31.57-4.1,9.48-11.85,13.73-21.57,15.21-2-1.32-4.2-.76-6.32-.76q-99,0-197.91,0a23.81,23.81,0,0,1-17.76-7.4c-2.38-2.35-2.63-6.12-5.85-7.66V65c5.28,2,8.2,7,12.78,10,16.07,10.62,31.84,21.7,47.7,32.63,13.66,9.41,27.19,19,41,28.23,7.15,4.75,15.45,7.7,23.9,7.66,9.15,0,18-3.32,25.67-8.52,14.16-9.58,28.26-19.26,42-29.35,18.33-13.43,38.54-24.25,55.38-39.75A7.38,7.38,0,0,1,250.72,65Z"/><path class="cls-1" d="M250.72,15.06V32c-3.52,1.62-3.05,5.57-4.69,8.3-6.24,10.39-15.09,17.89-25,24.6-18.54,12.61-36.78,25.64-55.26,38.33-9.57,6.57-18.68,13.82-29,19.28-7.69,4-15.09,4.06-22.8,0-8.31-4.32-15.56-10.1-23.11-15.52C71.33,93,51.54,79.31,31.78,65.55,22.49,59.08,13.44,52.45,6.6,43.16,4.2,39.89,3.57,35.5,0,33v-17c2.26-.23,2.12-2.34,2.8-3.71C6.73,4.31,12.78,0,22,0Q124.29.14,226.55,0a24.58,24.58,0,0,1,20,9.26C248.11,11.11,247.75,14.3,250.72,15.06Z"/><path class="cls-1" d="M227.75,198.86l.09-1.21c9.72-1.48,17.47-5.73,21.57-15.21.14-.32.86-.38,1.31-.57,0,4.83-.14,9.67.07,14.49.09,2.16-.41,2.62-2.56,2.56C241.4,198.74,234.58,198.86,227.75,198.86Z"/></g></g></g></svg>