<svg xmlns="http://www.w3.org/2000/svg" viewBox="0 0 398.93 398.89"><defs><style>.cls-1{fill:#fefefe;}.cls-2{fill:#dee5e0;}</style></defs><g id="Laag_2" data-name="Laag 2"><g id="Laag_1-2" data-name="Laag 1"><g id="_9Zzbhh" data-name="9Zzbhh"><path class="cls-1" d="M193,398.89a7.5,7.5,0,0,0-4-1c-3.49-1-7,.23-10.49,0a1,1,0,0,0-1-.48c-.34-.48-.68-.51-1,0-2.1-.29-4.47.84-6.28-1.21-.18-.2-.92.18-1.39.15-1.73-.13-3.66.79-5.06-1.08-.45-.6-1.21-.29-1.85-.08-1,.32-1.93.43-2.64-.62-.51-.76-1.23-.57-2-.35-.94.26-1.95.51-2.79-.33-.55-1.8-2.14-.69-3.19-1.12-3.92-1.59-8.08-2.44-12.11-3.69a145.88,145.88,0,0,1-15.35-5.54,201.54,201.54,0,0,1-23.35-11.64c-7.34-4.45-14.56-9-21.5-14.08-1.51-1.09-2.56-3.24-5-2.89v-.51c-2.17-2.82-5.11-4.81-7.7-7.19a226.64,226.64,0,0,1-25.41-27.5c-1.15-1.49-1.67-3.71-3.87-4.29.18-.92-.43-1.44-1-2-2.64-4.76-5.28-9.51-9-13.54,0-.16,0-.31,0-.47,0-1.5-.87-2.64-1.59-3.85a74.4,74.4,0,0,1-4.17-7.29c-4.27-9.57-8.65-19.1-11.69-29.17A132.68,132.68,0,0,1,6,246.06a84.46,84.46,0,0,0-3-11.63c-.5-4.51-.81-9.06-1.58-13.52A60.36,60.36,0,0,1,1,213.22a24.22,24.22,0,0,0-1-6.77v-14c1.09-1.63.83-3.64.81-5.29-.06-4.77,1-9.39,1.18-14.11.1-2.74,1.18-5.35,1-8.12a78.15,78.15,0,0,0,2.4-9A93.88,93.88,0,0,1,8.52,143a156.81,156.81,0,0,1,7.65-21.11c2.08-4.49,3.69-9.19,6.3-13.49,1.71-2.81,4-5.49,4.53-9,0-.16,0-.31,0-.47a21,21,0,0,0,5.17-7.09c1.11-2.28,3.53-3.74,3.84-6.45,0-.15,0-.29,0-.44,1.22-.15.95-1.39,1.5-2h0a59,59,0,0,0,9-11.5h0c1.83-1.37,3.83-2.59,4.5-5h0c1-.19,1.46-1,2.07-1.69A225.12,225.12,0,0,1,78.89,41.16c1.89-1.5,4.4-2.31,5.58-4.66,0-.18,0-.35,0-.53,3.73-.24,6.14-3.07,9-4.84a207.56,207.56,0,0,1,31.79-16.2A1.05,1.05,0,0,0,126,14h0a6.29,6.29,0,0,0,2-.13c5.9-2.49,12-4.31,18.11-6.2,1.58-.48,3.78.24,4.9-1.67l0,0c1.16-.31,2.72.81,3.47-1a29.79,29.79,0,0,0,10.22-1.89c1.09-.37,2.27-.13,3.43-.36,2.77-.56,5.58-.85,8.38-1.25.33.51.66.48,1,0h0c3.78-1.34,7.71.65,11.49-.52a7.5,7.5,0,0,0,4-1h13a7.41,7.41,0,0,0,4,1c3.5.74,7-.12,10.49,0h0a1.13,1.13,0,0,0,1,.52A1.39,1.39,0,0,0,222.8,2c3.44-.59,6.75.74,10.17.84a22,22,0,0,1,7.13,1.66A16.41,16.41,0,0,0,248.46,6a1,1,0,0,0,1.18,1c2-.23,3.74.73,5.44,1.3,5.39,1.79,10.81,3.5,16.11,5.62a220.46,220.46,0,0,1,27.62,13.29c4.42,2.52,8.51,5.59,13.11,7.8h0c1.52,2.08,3.94,3,5.9,4.47a204,204,0,0,1,25.39,22.59c4,4.23,7.93,8.44,11.47,13C356,76.85,357,79.18,359.4,80h0c.21,2.24,1.63,3.53,3.5,4.47,0,.17,0,.35,0,.53-.8.66-.14,1.27.19,1.73a166.46,166.46,0,0,1,10.12,16.17,192.45,192.45,0,0,1,12.69,27,150.87,150.87,0,0,1,5.27,16.42c1.26,5.07,2.77,10.07,3.27,15.3a1.39,1.39,0,0,0,1.44,1.4v1c-.84.83,0,1.13.5,1.5-.8,3.45,1.61,6.58,1,10l-.48.47c.32.67.65,1.35,1,2-.15,2.38-.33,4.77-.46,7.15-.1,1.93,1.54,3.39,1.48,5.31.1.85-1.08,1.69,0,2.54v14c-.77,1.07.53,2.28-.37,3.48a7.31,7.31,0,0,0-.91,6.2,10.56,10.56,0,0,1-.44,5.5c-.16.55-.25.93.23,1.29a42.41,42.41,0,0,1-2.12,12.46c-.39,1.23.42,2.05.11,3.06a5.72,5.72,0,0,0-1.91,4.15c-.41,4.23-1.74,8.25-2.93,12.24A174.82,174.82,0,0,1,383,276.15a208.73,208.73,0,0,1-13.72,26.64c-3,4.75-6.09,9.39-9.17,14.06a2.91,2.91,0,0,0-.73,2h0c-2.68,1.46-4,4-5.5,6.5h0c-2.73,2.16-4.7,5-7,7.54a201.62,201.62,0,0,1-28.56,26c-2.17,1.59-4.78,2.68-6.41,5h0c-5.66,3.34-11.26,6.8-17,10a175.22,175.22,0,0,1-23.5,11c-4.32,1.61-8.63,3.31-13.05,4.65-2.86.88-5.73,1.78-8.67,2.47-1.72.41-3.92.08-5.23,1.86-2.8.38-5.55,1.08-8.38,1.39-1.66.18-3.1,1.3-5,1.17-3.38-.23-6.62,1.62-10.09,1-.14,0-.36.3-.54.46-3.5.17-7-.72-10.49,0a7.5,7.5,0,0,0-4,1Zm91.49-200.45a.91.91,0,0,0-1-1,1.71,1.71,0,0,1-1.77-.16c-1.45-.8-2.94-1.76-4.77-1.37-.05-1-.77-1-1.48-1l-.05-.55c-2.87-2.1-6.35-2.75-9.59-3.95a139.41,139.41,0,0,0-14.22-4.74c-3.51-.87-6.87-2.59-10.64-2.28h0c-.09-.23-.14-.63-.28-.66a71.46,71.46,0,0,0-9.47-2.23,45.42,45.42,0,0,1-7.2-1.37c-4.58-1.33-9.3-1.6-13.9-2.59-5.16-1.11-10.53-1.23-15.79-2-5-.72-10.22-.58-15.34-1-8.95-.65-18-.17-27-.16-1,.3-2.17.23-3.05,1a106.92,106.92,0,0,0-16.76.86c-3.38.48-6.72,1.72-10.23,1.16a.84.84,0,0,0-.48.12c-2.6,1.37-5.57,1.25-8.34,1.67-2.42.37-4.89.85-7.18,1.43-4.79,1.21-9.64,2.17-14.38,3.63-5.2,1.59-10.47,2.7-13.92,7.56-1,1.43-1.09,3.2-2,4.42-2.11,2.67-1.06,5.79-.69,8.25a14.71,14.71,0,0,0,5.62,9.24c1.69,1.29,3.42,3,5.93,2.61h0c2.54,2,5.39,1.19,8,.57,4.59-1.1,9.06-2.67,13.7-3.66a53.89,53.89,0,0,0,6-1.26,32.5,32.5,0,0,1,7.1-1.51c3.26-.32,6.53-.87,9.73-1.34a136.69,136.69,0,0,1,22.57-1.81,6.08,6.08,0,0,0,3.41-.49,63.06,63.06,0,0,1,17,0l26,1.52h0c.35,1.48,1.59,1.07,2.45,1,3.36-.4,6.55.76,9.69,1.4,2.85.58,5.79.58,8.63,1.53,3.51,1.18,7.32,1.39,10.92,2.31,4.31,1.1,8.56,2.42,12.78,3.79,5.49,1.79,10.92,3.76,16.4,5.56,3.24,1.07,6.14,3.06,9.62,3.45h0a22.24,22.24,0,0,0,8.5,4h0a8.75,8.75,0,0,0,6,3h0c1.15,2.23,3.62,2.38,5.49,3.48a4.24,4.24,0,0,1,2.12,1.09c1.41,1.07,2.83,2.27,4.83,1.93,2.75,2,5.67,1,8.57.5h0c2.71-.67,5.5-1.2,7-4h0a1.47,1.47,0,0,0,1.5-1.51l.5-.51a3.34,3.34,0,0,0,1.52-3c0-.14,0-.28,0-.42a1.17,1.17,0,0,0,.92-.73c2.44-6.15.5-11.5-3.54-16-3.89-4.38-9.51-6.37-14.51-9.18-3.31-1.86-6.63-3.76-10.41-4.6h-.35c-.18-.95-.87-1.06-1.65-1h-.35c-.28-1.22-1.24-1-2.1-1Zm-98,41.5c-.37-.57-1-.5-1.51-.52a1.06,1.06,0,0,0-1-.48q-14.7,0-29.4,0c-.87,0-1.85-.3-2.59.49h-.51l-.51.49h-.48c-2.45-.12-4.92.2-7.36-.41a3,3,0,0,0-3.16.91h-1a6.74,6.74,0,0,1-3.6.16,6,6,0,0,0-4.56.44,5.22,5.22,0,0,1-3.26.52c-1.52-.08-3.33-.85-4.56.86-3.1-.46-6,1.1-9,1-2.52-.11-4.69,1.42-7.21,1.24a1.28,1.28,0,0,0-1.27,1.29c-3.17-1.26-6,.72-9,1-.38,0-.69.63-1,1l-2.54,0c-1.64.55-3.69.38-4.47,2.48h0a2.43,2.43,0,0,0-2.29,1.19c-2.81,4-4.7,8.14-2.69,13.25,1.31,3.33,4.63,6.82,7.47,7.05.19,1.34,1.22.94,2,1,3.07,2.4,6.16.13,9.06-.32,4.62-.72,9.19-1.93,13.82-2.8,2.51-.47,5.05-.56,7.51-1,4.17-.82,8.28-1.84,12.56-1.84a6.19,6.19,0,0,0,2-.11c5.18-1.74,10.65-1.27,15.93-1.68,9.68-.73,19.45-.2,29.19-.21a18.25,18.25,0,0,1,3.88.62,16.15,16.15,0,0,0,8.53-.1h1c.14,1.57,1.33,1.58,2.4,1.45,3.45-.44,6.81.61,10,1.28,6.42,1.34,12.88,2.7,19.22,4.58,6.83,2,13.53,4.4,20.28,6.65,1.2,0,2.19,1.5,3.54.53-.12,1.06.56,1.24,1.41,1.63,5.07,2.29,10,4.83,14.87,7.57,3.19,1.8,6.13,4.17,9.81,5,1.49.32,3.2,1.2,4.4-.68h0c1.06-.1,2.21.3,3.19-.28,7.83-4.69,10.56-13,4-20.92a1.84,1.84,0,0,0-1.68-.81h0c-1.21-1.45-2.51-2.75-4.51-3h0c-.75-1.49-2.4-1.85-3.65-2.47-1.76-.88-3.14-2.66-5.36-2.54h0a1.21,1.21,0,0,0-.67-1q-8.61-4.41-17.61-8c-3.16-1.24-6.22-2.92-9.72-3.1h0c-1.67-1.66-3.8-2-6-2h0c-.74-1.82-2.35-.63-3.51-1h0c-.11-.88-.75-.91-1.45-1-1.64-.2-3.48-.08-4.85-.81a19.17,19.17,0,0,0-9.2-2.19h0c-.53-1.69-1.94-.71-3-1-2.34-.83-4.83-.93-7.24-1.41-3.08-.6-6.39.16-9.27-1.6a.25.25,0,0,0-.24,0c-2.09,1.64-3.92.37-5.79-.51h-9.48Zm58.48-89.48c.75,1.93,2.48.66,3.7,1.1a27.3,27.3,0,0,0,9.79,1.88c.15.28.26.76.47.81,4.18,1.11,8.41,2,12.55,3.27,2.91.86,6,1.15,8.69,2.65a5.67,5.67,0,0,0,3.3.78,11.67,11.67,0,0,0,7,3h.53c.29.29.52.71.86.85a158.41,158.41,0,0,1,22.65,11c3.08,1.86,6.3,3.67,9.89,4.06a19.2,19.2,0,0,0,16-5.43c7.72-7.25,7.28-20,.49-27.23a9.3,9.3,0,0,0-5.41-3.26h0c-.08-.23-.1-.59-.26-.67-5.28-2.79-10.54-5.63-15.88-8.31a190.24,190.24,0,0,0-22.82-9.61c-3.78-1.32-7.47-3-11.54-3.41-2,.37-3.52-1.6-5.54-1-.29-2.45-2.53-1.27-3.78-1.88a7.94,7.94,0,0,0-5.15-1.1c-.71-.06-1.51.2-2-.53-.75-1.47-2.23-.69-3.33-1.09A38.29,38.29,0,0,0,251.47,114l-1-.51c-2.1-1.72-4.78-1.56-7.2-1.91-2.74-.39-5.47-1-8.21-1.32-4.26-.57-8.43-1.8-12.79-1.78a3.58,3.58,0,0,1-1.23-.08c-4.47-1.67-9.25-.88-13.84-1.8-2.95-.59-6.12-.1-9.19-.09l0,0c-.36-1.49-1.59-.95-2.47-.95-6.65,0-13.31,0-20,0a17.4,17.4,0,0,0-9.06,0c-5.82,0-11.64,0-17.46,0-2,0-4.16-.43-5.94.2-5,1.78-10.27.46-15.41,1.53-3.88.8-8,1.89-12.19,1.31a.8.8,0,0,0-.48.1c-2.81,1.65-6.08.86-9.11,1.64a33.56,33.56,0,0,1-7.69,1.44c-1.31,0-2.76.83-4.27.82A1.34,1.34,0,0,0,92.5,114c-2.79-.79-5.54.37-7.94,1.09A106,106,0,0,0,72.46,119a7.38,7.38,0,0,0-4,1.85c-8.63,7.3-9.66,17.59-3.48,26.85,2.21,3.31,5.69,4.88,9,6.74a6.9,6.9,0,0,1,2.21.22c2.75,1.19,5.33.68,8.18.11,3.14-.63,6-2.17,9.25-2.32A1.37,1.37,0,0,0,95,151a7.6,7.6,0,0,0,4.24-.16,25.8,25.8,0,0,1,6.12-1.33c2.53-.13,4.83-1.55,7.44-1.14.41.06.61-.47.7-.89h0c4.31.64,8.39-1.49,12.69-1.06a1.07,1.07,0,0,0,.25,0,101.6,101.6,0,0,1,16.5-1.91c2.86-.17,5.81.49,8.52-1h38l.55,0c1.18.94,2.58.9,4,1,3.83.28,7.67.29,11.51.67,5.11.5,10.23,1.84,15.44,1.3l.55,0c.92,1.08,2.18,1.07,3.42,1,3.05-.23,5.93.89,8.9,1.27,3.71.47,7.34,1.73,11.16,1.75Z"/><path class="cls-2" d="M396.4,165.45c-.54-.37-1.34-.67-.5-1.5C396.46,164.32,396.39,164.9,396.4,165.45Z"/><path class="cls-2" d="M176.45,397.39c.34-.51.68-.48,1,0Z"/><path class="cls-2" d="M221.45,1.52a1.13,1.13,0,0,1-1-.52A1.06,1.06,0,0,1,221.45,1.52Z"/><path class="cls-2" d="M396.92,175.93l.48-.47Z"/><path class="cls-2" d="M312.92,236.45a1.39,1.39,0,0,1,1.5-1.51A1.47,1.47,0,0,1,312.92,236.45Z"/><path class="cls-2" d="M276.92,195.94l-1.48-1C276.15,195,276.87,195,276.92,195.94Z"/><path class="cls-2" d="M186.46,239.94c-.56,0-1.15.08-1.51-.52C185.5,239.44,186.09,239.37,186.46,239.94Z"/><path class="cls-2" d="M151.45,239.45l-.51.49Z"/></g></g></g></svg>