<svg xmlns="http://www.w3.org/2000/svg" viewBox="0 0 209.39 175.2"><defs><style>.cls-1{fill:#fefefe;}</style></defs><g id="Laag_2" data-name="Laag 2"><g id="Laag_1-2" data-name="Laag 1"><g id="MP85sU"><path class="cls-1" d="M207.86,22.34c4,1.33-1.2,2.65,0,4-5.68,5.7-11,11.75-17.65,16.45A3.18,3.18,0,0,0,189,46.32c1.92,7.17-.09,14.13-1.08,21.11-3.85,27.1-15.64,50.46-34.18,70.37-8,8.61-17.53,15.4-27.82,21.38a115,115,0,0,1-33.44,12.94A122,122,0,0,1,51,174.35a166.75,166.75,0,0,1-30.82-7.16c-7.11-2.28-13.16-6.7-20.22-8.95v-2c4.77.3,9.71,1.53,14.3.73,11.2-1.95,22.32-4.59,32.6-9.73,4.92-2.46,9.84-5,13.92-9.27-4.49-2.21-9.16-1.85-13.29-3.47a44.82,44.82,0,0,1-24.11-21.59c-.83-1.6-2.69-3.28-1.71-4.78,1.16-1.79,3.7-1,5.53-.53,4.26,1.11,8-.6,12-1.72a58.14,58.14,0,0,1-17.95-9.77C11.27,87.71,5.74,77.32,5,64.31l3-1c4.74,3.2,9.91,4.11,16.93,3.59-5.32-3.55-8.32-7.32-11.55-10.83A26.94,26.94,0,0,1,6.12,40.65,93.75,93.75,0,0,1,6.06,25.2c.28-4.42.73-8.91,3.29-12.82,1.2-1.85,2.39-2.84,4.22-.73A129.5,129.5,0,0,0,31.85,28.93c6.06,4.72,12.68,8.41,19.24,12.19s13.71,5.56,20.73,8C81,52.3,90.08,54.51,99.76,54.35c2.07,0,2.7-.47,2.49-2.91-.73-8.28-.06-16.17,3.27-24.25,6.16-15,17.55-23.58,32.36-26.43,13.42-2.59,26.29,1.52,36.88,10.94,1.51,1.35,3.14,3,5.22,2.36,7.55-2.22,15.37-3.88,21.9-8.7,2,.11,2,1.53,2,3-4.43,6.53-8.07,13.77-15.67,17.47a1.28,1.28,0,0,0-.77,1.64c.45,1,1.33.67,2.13.52A88.57,88.57,0,0,0,207.86,22.34Z"/></g></g></g></svg>