<svg xmlns="http://www.w3.org/2000/svg" viewBox="0 0 113.25 136.28"><defs><style>.cls-1{fill:#fff;}.cls-2{fill:#feffff;}</style></defs><g id="Laag_2" data-name="Laag 2"><g id="Laag_1-2" data-name="Laag 1"><g id="R29GCf"><path class="cls-1" d="M56.15,136.25c-12.32,0-24.65,0-37,0-12,0-18.95-7-19-18.86,0-12.32.56-24.67-.2-36.95-.53-8.64,7.47-18,17.4-18.07q38.71-.22,77.43,0a18.28,18.28,0,0,1,18.21,18.12q.38,18.72,0,37.46c-.21,10.74-8,18.17-19,18.27C81.46,136.34,68.8,136.25,56.15,136.25Zm0-37.21c0,6.65,0,13.31,0,20,0,4.24,2.47,5.76,6,3.4,1.46-1,2.06-1.21,3.69-.43,6.1,2.92,9.86.93,10.21-5.76.4-7.8.24-15.64,0-23.45-.1-3.85-4.43-7.5-7.36-6-5.09,2.55-4.68-.5-4.57-3.74,0-1.33-.09-2.67,0-4,.24-2.84-1-3.77-3.81-3.76s-4.34.57-4.26,3.84C56.3,85.73,56.18,92.38,56.18,99Zm-5,6.7c0-4.82-.06-9.64,0-14.47.05-3-1.89-3-4-3s-4.1,0-4,3c.27,7.3-.66,14.63.53,21.89.36,2.21.16,3.78-2.27,3.93s-2.26-1.91-2.26-3.54c0-7-.13-14,0-21,.08-3.17-.86-4.45-4.22-4.41s-3.91,1.4-3.87,4.24c.12,8,.08,16,0,24,0,2.76,0,5.26,2.92,6.84s5.49.41,7.78-1.27c1.56-1.13,2.5-2,3.75.38.81,1.56,2.7,1,4.1.68,1.73-.41,1.43-2,1.44-3.3C51.19,115.06,51.17,110.4,51.16,105.74ZM15.21,103c0,5.15,0,10.29,0,15.44,0,2.88-.88,6,4.12,6,4.72-.07,3.85-3,3.86-5.72,0-10.13.27-20.26-.09-30.37-.18-5.09.67-8.06,6.58-7,2.05.35,3.52-.33,3.52-2.9S32,75.26,29.78,75.28c-6,.06-12,0-17.93,0-2,0-3.61.19-3.65,2.84,0,2.4,1,3.37,3.3,3.14,3.33-.34,3.79,1.56,3.74,4.28C15.12,91.36,15.2,97.17,15.21,103Zm65.9.91c.35,3.79-.34,7.58.8,11.39,1.77,5.89,4.64,8.23,10.73,8,4.5-.18,7.19-3,8.16-8.4.24-1.34.72-2.83-1-3.33-1.56-.45-3.38-.78-4.53.91a7,7,0,0,0-1,2.75c-.29,1.66-1,2.85-2.77,3a3.82,3.82,0,0,1-3.91-2.54c-2.44-5.33,0-9.34,5.71-9.36,1.33,0,2.67-.06,4,0a3.17,3.17,0,0,0,3.6-2.73c1-4.84-.76-9.48-1.46-14.18-.16-1-1.67-2.1-2.8-2.66-6.31-3.17-12.74,0-14.71,6.79C80.84,97,81.44,100.43,81.11,103.89Z"/><path class="cls-2" d="M90.15,34.48V47c0,6.45-1.77,7.89-8.05,5.95a4,4,0,0,0-3.49.08c-4.25,2-8.09.26-8.25-4.24-.37-10.14-.18-20.29-.12-30.44,0-2.34,1.68-3,3.79-2.92,2.35.11,3.11,1.54,3.11,3.66,0,7.65,0,15.3,0,23,0,2-.64,5,2.5,5s2.44-3,2.46-5c.06-7.32.09-14.64,0-22,0-3,.84-4.59,4.21-4.73,3.79-.15,3.89,2,3.84,4.74C90.08,24.83,90.15,29.66,90.15,34.48Z"/><path class="cls-1" d="M31,18.33c1.59-5.61,3.09-10.15,4.13-14.79s4.6-3.42,7.14-3c3.46.64,1.41,3.33.9,5.18a20.12,20.12,0,0,1-1.87,4.59c-6.83,12-6.57,25.06-6.07,38.17.12,3.11-.34,5.1-4.22,4.87-2.7-.15-3.92-.88-3.84-3.75.14-5.31-.44-10.68.14-15.93.94-8.51-3.46-15.32-6.25-22.67-.7-1.86-1.69-3.62-2.24-5.52-.46-1.6-3.21-3.89,0-4.83C21.22,0,24.91-1.14,26.25,3.1,27.74,7.83,29.2,12.56,31,18.33Z"/><path class="cls-2" d="M65.14,34c0,4.31.23,8.62-1,12.84-1.46,4.89-4.76,7.48-9.74,7.44-5.6-.05-8.74-2.43-10-7.8a54.93,54.93,0,0,1-.15-23.67,11.08,11.08,0,0,1,10.88-8.49c5.33.2,9.36,4.62,9.94,11.2C65.34,28.36,65.14,31.2,65.14,34Zm-7,.32c0-2.81,0-5.62,0-8.43,0-2.3-.16-4.42-3.21-4.54s-3.68,1.94-3.72,4.21c-.13,6.11,0,12.23-.06,18.35a3.67,3.67,0,0,0,3.66,3.93c2.42.12,3.26-1.91,3.3-4.09C58.21,40.64,58.17,37.49,58.18,34.35Z"/><path class="cls-2" d="M71.13,104.06c0,3,.12,6,0,9-.14,2.75-1.77,4.2-4.55,4.2-3,0-3.4-2-3.39-4.4,0-5.82.08-11.64,0-17.45,0-2.89,1.38-4.6,4-4.66s3.75,2,3.9,4.37c.19,3,0,6,0,9Z"/><path class="cls-2" d="M91.05,100.25c-2.25.18-4-.12-3.9-3,.09-2.66,1.08-4.69,3.88-4.78S95,94.3,95.15,97C95.37,100.17,93.42,100.46,91.05,100.25Z"/></g></g></g></svg>